<?xml version="1.0" encoding="utf-8" standalone="no"?>
<!DOCTYPE svg PUBLIC "-//W3C//DTD SVG 1.1//EN"
  "http://www.w3.org/Graphics/SVG/1.1/DTD/svg11.dtd">
<svg xmlns:xlink="http://www.w3.org/1999/xlink" width="460.8pt" height="345.6pt" viewBox="0 0 460.8 345.6" xmlns="http://www.w3.org/2000/svg" version="1.1">
 <metadata>
  <rdf:RDF xmlns:dc="http://purl.org/dc/elements/1.1/" xmlns:cc="http://creativecommons.org/ns#" xmlns:rdf="http://www.w3.org/1999/02/22-rdf-syntax-ns#">
   <cc:Work>
    <dc:type rdf:resource="http://purl.org/dc/dcmitype/StillImage"/>
    <dc:date>2022-07-04T16:21:01.110688</dc:date>
    <dc:format>image/svg+xml</dc:format>
    <dc:creator>
     <cc:Agent>
      <dc:title>Matplotlib v3.5.2, https://matplotlib.org/</dc:title>
     </cc:Agent>
    </dc:creator>
   </cc:Work>
  </rdf:RDF>
 </metadata>
 <defs>
  <style type="text/css">*{stroke-linejoin: round; stroke-linecap: butt}</style>
 </defs>
 <g id="figure_1">
  <g id="patch_1">
   <path d="M 0 345.6 
L 460.8 345.6 
L 460.8 0 
L 0 0 
z
" style="fill: #ffffff"/>
  </g>
  <g id="axes_1">
   <g id="patch_2">
    <path d="M 57.6 307.584 
L 414.72 307.584 
L 414.72 41.472 
L 57.6 41.472 
z
" style="fill: #ffffff"/>
   </g>
   <g id="PolyCollection_1">
    <path d="M 75.464157 159.337718 
L 75.464157 168.186202 
L 77.095587 161.869431 
L 78.727017 155.602619 
L 80.358447 149.410496 
L 81.989877 143.3175 
L 83.621307 137.347678 
L 85.252736 131.52459 
L 86.884166 125.871217 
L 88.515596 120.409869 
L 90.147026 115.162102 
L 91.778456 110.148624 
L 93.409886 105.389222 
L 95.041316 100.90268 
L 96.672746 96.706703 
L 98.304175 92.817851 
L 99.935605 89.251471 
L 101.567035 86.02164 
L 103.198465 83.141102 
L 103.198465 81.142443 
L 103.198465 81.142443 
L 101.567035 72.196166 
L 99.935605 64.863722 
L 98.304175 59.26075 
L 96.672746 55.475611 
L 95.041316 53.568 
L 93.409886 53.568 
L 91.778456 55.475611 
L 90.147026 59.26075 
L 88.515596 64.863722 
L 86.884166 72.196166 
L 85.252736 81.142443 
L 83.621307 91.561467 
L 81.989877 103.288922 
L 80.358447 116.13986 
L 78.727017 129.911614 
L 77.095587 144.386995 
L 75.464157 159.337718 
z
" clip-path="url(#p46619dab7e)" style="fill: #ff0000"/>
    <path d="M 157.035651 159.337718 
L 157.035651 180.869798 
L 158.667081 187.186569 
L 160.298511 193.453381 
L 161.929941 199.645504 
L 163.56137 205.7385 
L 165.1928 211.708322 
L 166.82423 217.53141 
L 168.45566 223.184783 
L 170.08709 228.646131 
L 171.71852 233.893898 
L 173.34995 238.907376 
L 174.98138 243.666778 
L 176.61281 248.15332 
L 178.244239 252.349297 
L 179.875669 256.238149 
L 181.507099 259.804529 
L 183.138529 263.03436 
L 184.769959 265.914898 
L 186.401389 268.434773 
L 188.032819 270.584041 
L 189.664249 272.35422 
L 191.295678 273.738324 
L 192.927108 274.730889 
L 194.558538 275.328 
L 196.189968 275.527299 
L 197.821398 275.328 
L 199.452828 274.730889 
L 201.084258 273.738324 
L 202.715688 272.35422 
L 204.347117 270.584041 
L 205.978547 268.434773 
L 205.978547 257.494533 
L 205.978547 257.494533 
L 204.347117 245.767078 
L 202.715688 232.91614 
L 201.084258 219.144386 
L 199.452828 204.669005 
L 197.821398 189.718282 
L 196.189968 174.528 
L 194.558538 159.337718 
L 192.927108 144.386995 
L 191.295678 129.911614 
L 189.664249 116.13986 
L 188.032819 103.288922 
L 186.401389 91.561467 
L 184.769959 81.142443 
L 183.138529 72.196166 
L 181.507099 64.863722 
L 179.875669 59.26075 
L 178.244239 55.475611 
L 176.61281 53.568 
L 174.98138 53.568 
L 173.34995 55.475611 
L 171.71852 59.26075 
L 170.08709 64.863722 
L 168.45566 72.196166 
L 166.82423 81.142443 
L 165.1928 91.561467 
L 163.56137 103.288922 
L 161.929941 116.13986 
L 160.298511 129.911614 
L 158.667081 144.386995 
L 157.035651 159.337718 
z
" clip-path="url(#p46619dab7e)" style="fill: #ff0000"/>
    <path d="M 238.607145 159.337718 
L 238.607145 168.186202 
L 240.238575 161.869431 
L 241.870005 155.602619 
L 243.501434 149.410496 
L 245.132864 143.3175 
L 246.764294 137.347678 
L 248.395724 131.52459 
L 250.027154 125.871217 
L 251.658584 120.409869 
L 253.290014 115.162102 
L 254.921444 110.148624 
L 256.552873 105.389222 
L 258.184303 100.90268 
L 259.815733 96.706703 
L 261.447163 92.817851 
L 263.078593 89.251471 
L 264.710023 86.02164 
L 266.341453 83.141102 
L 266.341453 81.142443 
L 266.341453 81.142443 
L 264.710023 72.196166 
L 263.078593 64.863722 
L 261.447163 59.26075 
L 259.815733 55.475611 
L 258.184303 53.568 
L 256.552873 53.568 
L 254.921444 55.475611 
L 253.290014 59.26075 
L 251.658584 64.863722 
L 250.027154 72.196166 
L 248.395724 81.142443 
L 246.764294 91.561467 
L 245.132864 103.288922 
L 243.501434 116.13986 
L 241.870005 129.911614 
L 240.238575 144.386995 
L 238.607145 159.337718 
z
" clip-path="url(#p46619dab7e)" style="fill: #ff0000"/>
    <path d="M 320.178639 159.337718 
L 320.178639 180.869798 
L 321.810069 187.186569 
L 323.441498 193.453381 
L 325.072928 199.645504 
L 326.704358 205.7385 
L 328.335788 211.708322 
L 329.967218 217.53141 
L 331.598648 223.184783 
L 333.230078 228.646131 
L 334.861508 233.893898 
L 336.492937 238.907376 
L 338.124367 243.666778 
L 339.755797 248.15332 
L 341.387227 252.349297 
L 343.018657 256.238149 
L 344.650087 259.804529 
L 346.281517 263.03436 
L 347.912947 265.914898 
L 349.544376 268.434773 
L 351.175806 270.584041 
L 352.807236 272.35422 
L 354.438666 273.738324 
L 356.070096 274.730889 
L 357.701526 275.328 
L 359.332956 275.527299 
L 360.964386 275.328 
L 362.595815 274.730889 
L 364.227245 273.738324 
L 365.858675 272.35422 
L 367.490105 270.584041 
L 369.121535 268.434773 
L 369.121535 257.494533 
L 369.121535 257.494533 
L 367.490105 245.767078 
L 365.858675 232.91614 
L 364.227245 219.144386 
L 362.595815 204.669005 
L 360.964386 189.718282 
L 359.332956 174.528 
L 357.701526 159.337718 
L 356.070096 144.386995 
L 354.438666 129.911614 
L 352.807236 116.13986 
L 351.175806 103.288922 
L 349.544376 91.561467 
L 347.912947 81.142443 
L 346.281517 72.196166 
L 344.650087 64.863722 
L 343.018657 59.26075 
L 341.387227 55.475611 
L 339.755797 53.568 
L 338.124367 53.568 
L 336.492937 55.475611 
L 334.861508 59.26075 
L 333.230078 64.863722 
L 331.598648 72.196166 
L 329.967218 81.142443 
L 328.335788 91.561467 
L 326.704358 103.288922 
L 325.072928 116.13986 
L 323.441498 129.911614 
L 321.810069 144.386995 
L 320.178639 159.337718 
z
" clip-path="url(#p46619dab7e)" style="fill: #ff0000"/>
   </g>
   <g id="PolyCollection_2">
    <path d="M 73.832727 174.528 
L 73.832727 174.528 
L 73.832727 174.528 
L 73.832727 174.528 
z
" clip-path="url(#p46619dab7e)" style="fill: #0000ff"/>
    <path d="M 104.829895 91.561467 
L 104.829895 80.621227 
L 106.461325 78.471959 
L 108.092755 76.70178 
L 109.724185 75.317676 
L 111.355614 74.325111 
L 112.987044 73.728 
L 114.618474 73.528701 
L 116.249904 73.728 
L 117.881334 74.325111 
L 119.512764 75.317676 
L 121.144194 76.70178 
L 122.775624 78.471959 
L 124.407053 80.621227 
L 126.038483 83.141102 
L 127.669913 86.02164 
L 129.301343 89.251471 
L 130.932773 92.817851 
L 132.564203 96.706703 
L 134.195633 100.90268 
L 135.827063 105.389222 
L 137.458492 110.148624 
L 139.089922 115.162102 
L 140.721352 120.409869 
L 142.352782 125.871217 
L 143.984212 131.52459 
L 145.615642 137.347678 
L 147.247072 143.3175 
L 148.878502 149.410496 
L 150.509931 155.602619 
L 152.141361 161.869431 
L 153.772791 168.186202 
L 155.404221 174.528 
L 155.404221 174.528 
L 155.404221 174.528 
L 153.772791 189.718282 
L 152.141361 204.669005 
L 150.509931 219.144386 
L 148.878502 232.91614 
L 147.247072 245.767078 
L 145.615642 257.494533 
L 143.984212 267.913557 
L 142.352782 276.859834 
L 140.721352 284.192278 
L 139.089922 289.79525 
L 137.458492 293.580389 
L 135.827063 295.488 
L 134.195633 295.488 
L 132.564203 293.580389 
L 130.932773 289.79525 
L 129.301343 284.192278 
L 127.669913 276.859834 
L 126.038483 267.913557 
L 124.407053 257.494533 
L 122.775624 245.767078 
L 121.144194 232.91614 
L 119.512764 219.144386 
L 117.881334 204.669005 
L 116.249904 189.718282 
L 114.618474 174.528 
L 112.987044 159.337718 
L 111.355614 144.386995 
L 109.724185 129.911614 
L 108.092755 116.13986 
L 106.461325 103.288922 
L 104.829895 91.561467 
z
" clip-path="url(#p46619dab7e)" style="fill: #0000ff"/>
    <path d="M 207.609977 267.913557 
L 207.609977 265.914898 
L 209.241407 263.03436 
L 210.872837 259.804529 
L 212.504267 256.238149 
L 214.135697 252.349297 
L 215.767127 248.15332 
L 217.398556 243.666778 
L 219.029986 238.907376 
L 220.661416 233.893898 
L 222.292846 228.646131 
L 223.924276 223.184783 
L 225.555706 217.53141 
L 227.187136 211.708322 
L 228.818566 205.7385 
L 230.449995 199.645504 
L 232.081425 193.453381 
L 233.712855 187.186569 
L 235.344285 180.869798 
L 236.975715 174.528 
L 236.975715 174.528 
L 236.975715 174.528 
L 235.344285 189.718282 
L 233.712855 204.669005 
L 232.081425 219.144386 
L 230.449995 232.91614 
L 228.818566 245.767078 
L 227.187136 257.494533 
L 225.555706 267.913557 
L 223.924276 276.859834 
L 222.292846 284.192278 
L 220.661416 289.79525 
L 219.029986 293.580389 
L 217.398556 295.488 
L 215.767127 295.488 
L 214.135697 293.580389 
L 212.504267 289.79525 
L 210.872837 284.192278 
L 209.241407 276.859834 
L 207.609977 267.913557 
z
" clip-path="url(#p46619dab7e)" style="fill: #0000ff"/>
    <path d="M 267.972883 91.561467 
L 267.972883 80.621227 
L 269.604312 78.471959 
L 271.235742 76.70178 
L 272.867172 75.317676 
L 274.498602 74.325111 
L 276.130032 73.728 
L 277.761462 73.528701 
L 279.392892 73.728 
L 281.024322 74.325111 
L 282.655751 75.317676 
L 284.287181 76.70178 
L 285.918611 78.471959 
L 287.550041 80.621227 
L 289.181471 83.141102 
L 290.812901 86.02164 
L 292.444331 89.251471 
L 294.075761 92.817851 
L 295.70719 96.706703 
L 297.33862 100.90268 
L 298.97005 105.389222 
L 300.60148 110.148624 
L 302.23291 115.162102 
L 303.86434 120.409869 
L 305.49577 125.871217 
L 307.1272 131.52459 
L 308.75863 137.347678 
L 310.390059 143.3175 
L 312.021489 149.410496 
L 313.652919 155.602619 
L 315.284349 161.869431 
L 316.915779 168.186202 
L 318.547209 174.528 
L 318.547209 174.528 
L 318.547209 174.528 
L 316.915779 189.718282 
L 315.284349 204.669005 
L 313.652919 219.144386 
L 312.021489 232.91614 
L 310.390059 245.767078 
L 308.75863 257.494533 
L 307.1272 267.913557 
L 305.49577 276.859834 
L 303.86434 284.192278 
L 302.23291 289.79525 
L 300.60148 293.580389 
L 298.97005 295.488 
L 297.33862 295.488 
L 295.70719 293.580389 
L 294.075761 289.79525 
L 292.444331 284.192278 
L 290.812901 276.859834 
L 289.181471 267.913557 
L 287.550041 257.494533 
L 285.918611 245.767078 
L 284.287181 232.91614 
L 282.655751 219.144386 
L 281.024322 204.669005 
L 279.392892 189.718282 
L 277.761462 174.528 
L 276.130032 159.337718 
L 274.498602 144.386995 
L 272.867172 129.911614 
L 271.235742 116.13986 
L 269.604312 103.288922 
L 267.972883 91.561467 
z
" clip-path="url(#p46619dab7e)" style="fill: #0000ff"/>
    <path d="M 370.752965 267.913557 
L 370.752965 265.914898 
L 372.384395 263.03436 
L 374.015825 259.804529 
L 375.647254 256.238149 
L 377.278684 252.349297 
L 378.910114 248.15332 
L 380.541544 243.666778 
L 382.172974 238.907376 
L 383.804404 233.893898 
L 385.435834 228.646131 
L 387.067264 223.184783 
L 388.698693 217.53141 
L 390.330123 211.708322 
L 391.961553 205.7385 
L 393.592983 199.645504 
L 395.224413 193.453381 
L 396.855843 187.186569 
L 398.487273 180.869798 
L 398.487273 189.718282 
L 398.487273 189.718282 
L 396.855843 204.669005 
L 395.224413 219.144386 
L 393.592983 232.91614 
L 391.961553 245.767078 
L 390.330123 257.494533 
L 388.698693 267.913557 
L 387.067264 276.859834 
L 385.435834 284.192278 
L 383.804404 289.79525 
L 382.172974 293.580389 
L 380.541544 295.488 
L 378.910114 295.488 
L 377.278684 293.580389 
L 375.647254 289.79525 
L 374.015825 284.192278 
L 372.384395 276.859834 
L 370.752965 267.913557 
z
" clip-path="url(#p46619dab7e)" style="fill: #0000ff"/>
   </g>
   <g id="matplotlib.axis_1">
    <g id="xtick_1">
     <g id="line2d_1">
      <defs>
       <path id="m534ffeac75" d="M 0 0 
L 0 3.5 
" style="stroke: #000000; stroke-width: 0.8"/>
      </defs>
      <g>
       <use xlink:href="#m534ffeac75" x="73.832727" y="307.584" style="stroke: #000000; stroke-width: 0.8"/>
      </g>
     </g>
     <g id="text_1">
      <!-- 0.00 -->
      <g transform="translate(62.699915 322.182437)scale(0.1 -0.1)">
       <defs>
        <path id="DejaVuSans-30" d="M 2034 4250 
Q 1547 4250 1301 3770 
Q 1056 3291 1056 2328 
Q 1056 1369 1301 889 
Q 1547 409 2034 409 
Q 2525 409 2770 889 
Q 3016 1369 3016 2328 
Q 3016 3291 2770 3770 
Q 2525 4250 2034 4250 
z
M 2034 4750 
Q 2819 4750 3233 4129 
Q 3647 3509 3647 2328 
Q 3647 1150 3233 529 
Q 2819 -91 2034 -91 
Q 1250 -91 836 529 
Q 422 1150 422 2328 
Q 422 3509 836 4129 
Q 1250 4750 2034 4750 
z
" transform="scale(0.015625)"/>
        <path id="DejaVuSans-2e" d="M 684 794 
L 1344 794 
L 1344 0 
L 684 0 
L 684 794 
z
" transform="scale(0.015625)"/>
       </defs>
       <use xlink:href="#DejaVuSans-30"/>
       <use xlink:href="#DejaVuSans-2e" x="63.623047"/>
       <use xlink:href="#DejaVuSans-30" x="95.410156"/>
       <use xlink:href="#DejaVuSans-30" x="159.033203"/>
      </g>
     </g>
    </g>
    <g id="xtick_2">
     <g id="line2d_2">
      <g>
       <use xlink:href="#m534ffeac75" x="114.618474" y="307.584" style="stroke: #000000; stroke-width: 0.8"/>
      </g>
     </g>
     <g id="text_2">
      <!-- 0.25 -->
      <g transform="translate(103.485662 322.182437)scale(0.1 -0.1)">
       <defs>
        <path id="DejaVuSans-32" d="M 1228 531 
L 3431 531 
L 3431 0 
L 469 0 
L 469 531 
Q 828 903 1448 1529 
Q 2069 2156 2228 2338 
Q 2531 2678 2651 2914 
Q 2772 3150 2772 3378 
Q 2772 3750 2511 3984 
Q 2250 4219 1831 4219 
Q 1534 4219 1204 4116 
Q 875 4013 500 3803 
L 500 4441 
Q 881 4594 1212 4672 
Q 1544 4750 1819 4750 
Q 2544 4750 2975 4387 
Q 3406 4025 3406 3419 
Q 3406 3131 3298 2873 
Q 3191 2616 2906 2266 
Q 2828 2175 2409 1742 
Q 1991 1309 1228 531 
z
" transform="scale(0.015625)"/>
        <path id="DejaVuSans-35" d="M 691 4666 
L 3169 4666 
L 3169 4134 
L 1269 4134 
L 1269 2991 
Q 1406 3038 1543 3061 
Q 1681 3084 1819 3084 
Q 2600 3084 3056 2656 
Q 3513 2228 3513 1497 
Q 3513 744 3044 326 
Q 2575 -91 1722 -91 
Q 1428 -91 1123 -41 
Q 819 9 494 109 
L 494 744 
Q 775 591 1075 516 
Q 1375 441 1709 441 
Q 2250 441 2565 725 
Q 2881 1009 2881 1497 
Q 2881 1984 2565 2268 
Q 2250 2553 1709 2553 
Q 1456 2553 1204 2497 
Q 953 2441 691 2322 
L 691 4666 
z
" transform="scale(0.015625)"/>
       </defs>
       <use xlink:href="#DejaVuSans-30"/>
       <use xlink:href="#DejaVuSans-2e" x="63.623047"/>
       <use xlink:href="#DejaVuSans-32" x="95.410156"/>
       <use xlink:href="#DejaVuSans-35" x="159.033203"/>
      </g>
     </g>
    </g>
    <g id="xtick_3">
     <g id="line2d_3">
      <g>
       <use xlink:href="#m534ffeac75" x="155.404221" y="307.584" style="stroke: #000000; stroke-width: 0.8"/>
      </g>
     </g>
     <g id="text_3">
      <!-- 0.50 -->
      <g transform="translate(144.271409 322.182437)scale(0.1 -0.1)">
       <use xlink:href="#DejaVuSans-30"/>
       <use xlink:href="#DejaVuSans-2e" x="63.623047"/>
       <use xlink:href="#DejaVuSans-35" x="95.410156"/>
       <use xlink:href="#DejaVuSans-30" x="159.033203"/>
      </g>
     </g>
    </g>
    <g id="xtick_4">
     <g id="line2d_4">
      <g>
       <use xlink:href="#m534ffeac75" x="196.189968" y="307.584" style="stroke: #000000; stroke-width: 0.8"/>
      </g>
     </g>
     <g id="text_4">
      <!-- 0.75 -->
      <g transform="translate(185.057156 322.182437)scale(0.1 -0.1)">
       <defs>
        <path id="DejaVuSans-37" d="M 525 4666 
L 3525 4666 
L 3525 4397 
L 1831 0 
L 1172 0 
L 2766 4134 
L 525 4134 
L 525 4666 
z
" transform="scale(0.015625)"/>
       </defs>
       <use xlink:href="#DejaVuSans-30"/>
       <use xlink:href="#DejaVuSans-2e" x="63.623047"/>
       <use xlink:href="#DejaVuSans-37" x="95.410156"/>
       <use xlink:href="#DejaVuSans-35" x="159.033203"/>
      </g>
     </g>
    </g>
    <g id="xtick_5">
     <g id="line2d_5">
      <g>
       <use xlink:href="#m534ffeac75" x="236.975715" y="307.584" style="stroke: #000000; stroke-width: 0.8"/>
      </g>
     </g>
     <g id="text_5">
      <!-- 1.00 -->
      <g transform="translate(225.842902 322.182437)scale(0.1 -0.1)">
       <defs>
        <path id="DejaVuSans-31" d="M 794 531 
L 1825 531 
L 1825 4091 
L 703 3866 
L 703 4441 
L 1819 4666 
L 2450 4666 
L 2450 531 
L 3481 531 
L 3481 0 
L 794 0 
L 794 531 
z
" transform="scale(0.015625)"/>
       </defs>
       <use xlink:href="#DejaVuSans-31"/>
       <use xlink:href="#DejaVuSans-2e" x="63.623047"/>
       <use xlink:href="#DejaVuSans-30" x="95.410156"/>
       <use xlink:href="#DejaVuSans-30" x="159.033203"/>
      </g>
     </g>
    </g>
    <g id="xtick_6">
     <g id="line2d_6">
      <g>
       <use xlink:href="#m534ffeac75" x="277.761462" y="307.584" style="stroke: #000000; stroke-width: 0.8"/>
      </g>
     </g>
     <g id="text_6">
      <!-- 1.25 -->
      <g transform="translate(266.628649 322.182437)scale(0.1 -0.1)">
       <use xlink:href="#DejaVuSans-31"/>
       <use xlink:href="#DejaVuSans-2e" x="63.623047"/>
       <use xlink:href="#DejaVuSans-32" x="95.410156"/>
       <use xlink:href="#DejaVuSans-35" x="159.033203"/>
      </g>
     </g>
    </g>
    <g id="xtick_7">
     <g id="line2d_7">
      <g>
       <use xlink:href="#m534ffeac75" x="318.547209" y="307.584" style="stroke: #000000; stroke-width: 0.8"/>
      </g>
     </g>
     <g id="text_7">
      <!-- 1.50 -->
      <g transform="translate(307.414396 322.182437)scale(0.1 -0.1)">
       <use xlink:href="#DejaVuSans-31"/>
       <use xlink:href="#DejaVuSans-2e" x="63.623047"/>
       <use xlink:href="#DejaVuSans-35" x="95.410156"/>
       <use xlink:href="#DejaVuSans-30" x="159.033203"/>
      </g>
     </g>
    </g>
    <g id="xtick_8">
     <g id="line2d_8">
      <g>
       <use xlink:href="#m534ffeac75" x="359.332956" y="307.584" style="stroke: #000000; stroke-width: 0.8"/>
      </g>
     </g>
     <g id="text_8">
      <!-- 1.75 -->
      <g transform="translate(348.200143 322.182437)scale(0.1 -0.1)">
       <use xlink:href="#DejaVuSans-31"/>
       <use xlink:href="#DejaVuSans-2e" x="63.623047"/>
       <use xlink:href="#DejaVuSans-37" x="95.410156"/>
       <use xlink:href="#DejaVuSans-35" x="159.033203"/>
      </g>
     </g>
    </g>
    <g id="xtick_9">
     <g id="line2d_9">
      <g>
       <use xlink:href="#m534ffeac75" x="400.118703" y="307.584" style="stroke: #000000; stroke-width: 0.8"/>
      </g>
     </g>
     <g id="text_9">
      <!-- 2.00 -->
      <g transform="translate(388.98589 322.182437)scale(0.1 -0.1)">
       <use xlink:href="#DejaVuSans-32"/>
       <use xlink:href="#DejaVuSans-2e" x="63.623047"/>
       <use xlink:href="#DejaVuSans-30" x="95.410156"/>
       <use xlink:href="#DejaVuSans-30" x="159.033203"/>
      </g>
     </g>
    </g>
   </g>
   <g id="matplotlib.axis_2">
    <g id="ytick_1">
     <g id="line2d_10">
      <defs>
       <path id="m223a8ee46c" d="M 0 0 
L -3.5 0 
" style="stroke: #000000; stroke-width: 0.8"/>
      </defs>
      <g>
       <use xlink:href="#m223a8ee46c" x="57.6" y="275.527299" style="stroke: #000000; stroke-width: 0.8"/>
      </g>
     </g>
     <g id="text_10">
      <!-- −1.0 -->
      <g transform="translate(26.317187 279.326518)scale(0.1 -0.1)">
       <defs>
        <path id="DejaVuSans-2212" d="M 678 2272 
L 4684 2272 
L 4684 1741 
L 678 1741 
L 678 2272 
z
" transform="scale(0.015625)"/>
       </defs>
       <use xlink:href="#DejaVuSans-2212"/>
       <use xlink:href="#DejaVuSans-31" x="83.789062"/>
       <use xlink:href="#DejaVuSans-2e" x="147.412109"/>
       <use xlink:href="#DejaVuSans-30" x="179.199219"/>
      </g>
     </g>
    </g>
    <g id="ytick_2">
     <g id="line2d_11">
      <g>
       <use xlink:href="#m223a8ee46c" x="57.6" y="225.02765" style="stroke: #000000; stroke-width: 0.8"/>
      </g>
     </g>
     <g id="text_11">
      <!-- −0.5 -->
      <g transform="translate(26.317187 228.826868)scale(0.1 -0.1)">
       <use xlink:href="#DejaVuSans-2212"/>
       <use xlink:href="#DejaVuSans-30" x="83.789062"/>
       <use xlink:href="#DejaVuSans-2e" x="147.412109"/>
       <use xlink:href="#DejaVuSans-35" x="179.199219"/>
      </g>
     </g>
    </g>
    <g id="ytick_3">
     <g id="line2d_12">
      <g>
       <use xlink:href="#m223a8ee46c" x="57.6" y="174.528" style="stroke: #000000; stroke-width: 0.8"/>
      </g>
     </g>
     <g id="text_12">
      <!-- 0.0 -->
      <g transform="translate(34.696875 178.327219)scale(0.1 -0.1)">
       <use xlink:href="#DejaVuSans-30"/>
       <use xlink:href="#DejaVuSans-2e" x="63.623047"/>
       <use xlink:href="#DejaVuSans-30" x="95.410156"/>
      </g>
     </g>
    </g>
    <g id="ytick_4">
     <g id="line2d_13">
      <g>
       <use xlink:href="#m223a8ee46c" x="57.6" y="124.02835" style="stroke: #000000; stroke-width: 0.8"/>
      </g>
     </g>
     <g id="text_13">
      <!-- 0.5 -->
      <g transform="translate(34.696875 127.827569)scale(0.1 -0.1)">
       <use xlink:href="#DejaVuSans-30"/>
       <use xlink:href="#DejaVuSans-2e" x="63.623047"/>
       <use xlink:href="#DejaVuSans-35" x="95.410156"/>
      </g>
     </g>
    </g>
    <g id="ytick_5">
     <g id="line2d_14">
      <g>
       <use xlink:href="#m223a8ee46c" x="57.6" y="73.528701" style="stroke: #000000; stroke-width: 0.8"/>
      </g>
     </g>
     <g id="text_14">
      <!-- 1.0 -->
      <g transform="translate(34.696875 77.32792)scale(0.1 -0.1)">
       <use xlink:href="#DejaVuSans-31"/>
       <use xlink:href="#DejaVuSans-2e" x="63.623047"/>
       <use xlink:href="#DejaVuSans-30" x="95.410156"/>
      </g>
     </g>
    </g>
   </g>
   <g id="line2d_15">
    <path d="M 73.832727 174.528 
L 80.358447 149.410496 
L 85.252736 131.52459 
L 88.515596 120.409869 
L 91.778456 110.148624 
L 95.041316 100.90268 
L 96.672746 96.706703 
L 98.304175 92.817851 
L 99.935605 89.251471 
L 101.567035 86.02164 
L 103.198465 83.141102 
L 104.829895 80.621227 
L 106.461325 78.471959 
L 108.092755 76.70178 
L 109.724185 75.317676 
L 111.355614 74.325111 
L 112.987044 73.728 
L 114.618474 73.528701 
L 116.249904 73.728 
L 117.881334 74.325111 
L 119.512764 75.317676 
L 121.144194 76.70178 
L 122.775624 78.471959 
L 124.407053 80.621227 
L 126.038483 83.141102 
L 127.669913 86.02164 
L 129.301343 89.251471 
L 130.932773 92.817851 
L 132.564203 96.706703 
L 135.827063 105.389222 
L 139.089922 115.162102 
L 142.352782 125.871217 
L 145.615642 137.347678 
L 150.509931 155.602619 
L 165.1928 211.708322 
L 168.45566 223.184783 
L 171.71852 233.893898 
L 174.98138 243.666778 
L 178.244239 252.349297 
L 179.875669 256.238149 
L 181.507099 259.804529 
L 183.138529 263.03436 
L 184.769959 265.914898 
L 186.401389 268.434773 
L 188.032819 270.584041 
L 189.664249 272.35422 
L 191.295678 273.738324 
L 192.927108 274.730889 
L 194.558538 275.328 
L 196.189968 275.527299 
L 197.821398 275.328 
L 199.452828 274.730889 
L 201.084258 273.738324 
L 202.715688 272.35422 
L 204.347117 270.584041 
L 205.978547 268.434773 
L 207.609977 265.914898 
L 209.241407 263.03436 
L 210.872837 259.804529 
L 212.504267 256.238149 
L 214.135697 252.349297 
L 217.398556 243.666778 
L 220.661416 233.893898 
L 223.924276 223.184783 
L 227.187136 211.708322 
L 232.081425 193.453381 
L 246.764294 137.347678 
L 250.027154 125.871217 
L 253.290014 115.162102 
L 256.552873 105.389222 
L 259.815733 96.706703 
L 261.447163 92.817851 
L 263.078593 89.251471 
L 264.710023 86.02164 
L 266.341453 83.141102 
L 267.972883 80.621227 
L 269.604312 78.471959 
L 271.235742 76.70178 
L 272.867172 75.317676 
L 274.498602 74.325111 
L 276.130032 73.728 
L 277.761462 73.528701 
L 279.392892 73.728 
L 281.024322 74.325111 
L 282.655751 75.317676 
L 284.287181 76.70178 
L 285.918611 78.471959 
L 287.550041 80.621227 
L 289.181471 83.141102 
L 290.812901 86.02164 
L 292.444331 89.251471 
L 294.075761 92.817851 
L 295.70719 96.706703 
L 298.97005 105.389222 
L 302.23291 115.162102 
L 305.49577 125.871217 
L 308.75863 137.347678 
L 313.652919 155.602619 
L 328.335788 211.708322 
L 331.598648 223.184783 
L 334.861508 233.893898 
L 338.124367 243.666778 
L 341.387227 252.349297 
L 343.018657 256.238149 
L 344.650087 259.804529 
L 346.281517 263.03436 
L 347.912947 265.914898 
L 349.544376 268.434773 
L 351.175806 270.584041 
L 352.807236 272.35422 
L 354.438666 273.738324 
L 356.070096 274.730889 
L 357.701526 275.328 
L 359.332956 275.527299 
L 360.964386 275.328 
L 362.595815 274.730889 
L 364.227245 273.738324 
L 365.858675 272.35422 
L 367.490105 270.584041 
L 369.121535 268.434773 
L 370.752965 265.914898 
L 372.384395 263.03436 
L 374.015825 259.804529 
L 375.647254 256.238149 
L 377.278684 252.349297 
L 380.541544 243.666778 
L 383.804404 233.893898 
L 387.067264 223.184783 
L 390.330123 211.708322 
L 395.224413 193.453381 
L 398.487273 180.869798 
L 398.487273 180.869798 
" clip-path="url(#p46619dab7e)" style="fill: none; stroke: #000000; stroke-width: 1.5; stroke-linecap: square"/>
   </g>
   <g id="line2d_16">
    <path d="M 73.832727 174.528 
L 78.727017 129.911614 
L 81.989877 103.288922 
L 83.621307 91.561467 
L 85.252736 81.142443 
L 86.884166 72.196166 
L 88.515596 64.863722 
L 90.147026 59.26075 
L 91.778456 55.475611 
L 93.409886 53.568 
L 95.041316 53.568 
L 96.672746 55.475611 
L 98.304175 59.26075 
L 99.935605 64.863722 
L 101.567035 72.196166 
L 103.198465 81.142443 
L 104.829895 91.561467 
L 106.461325 103.288922 
L 108.092755 116.13986 
L 111.355614 144.386995 
L 119.512764 219.144386 
L 122.775624 245.767078 
L 124.407053 257.494533 
L 126.038483 267.913557 
L 127.669913 276.859834 
L 129.301343 284.192278 
L 130.932773 289.79525 
L 132.564203 293.580389 
L 134.195633 295.488 
L 135.827063 295.488 
L 137.458492 293.580389 
L 139.089922 289.79525 
L 140.721352 284.192278 
L 142.352782 276.859834 
L 143.984212 267.913557 
L 145.615642 257.494533 
L 147.247072 245.767078 
L 148.878502 232.91614 
L 152.141361 204.669005 
L 160.298511 129.911614 
L 163.56137 103.288922 
L 165.1928 91.561467 
L 166.82423 81.142443 
L 168.45566 72.196166 
L 170.08709 64.863722 
L 171.71852 59.26075 
L 173.34995 55.475611 
L 174.98138 53.568 
L 176.61281 53.568 
L 178.244239 55.475611 
L 179.875669 59.26075 
L 181.507099 64.863722 
L 183.138529 72.196166 
L 184.769959 81.142443 
L 186.401389 91.561467 
L 188.032819 103.288922 
L 189.664249 116.13986 
L 192.927108 144.386995 
L 201.084258 219.144386 
L 204.347117 245.767078 
L 205.978547 257.494533 
L 207.609977 267.913557 
L 209.241407 276.859834 
L 210.872837 284.192278 
L 212.504267 289.79525 
L 214.135697 293.580389 
L 215.767127 295.488 
L 217.398556 295.488 
L 219.029986 293.580389 
L 220.661416 289.79525 
L 222.292846 284.192278 
L 223.924276 276.859834 
L 225.555706 267.913557 
L 227.187136 257.494533 
L 228.818566 245.767078 
L 230.449995 232.91614 
L 233.712855 204.669005 
L 241.870005 129.911614 
L 245.132864 103.288922 
L 246.764294 91.561467 
L 248.395724 81.142443 
L 250.027154 72.196166 
L 251.658584 64.863722 
L 253.290014 59.26075 
L 254.921444 55.475611 
L 256.552873 53.568 
L 258.184303 53.568 
L 259.815733 55.475611 
L 261.447163 59.26075 
L 263.078593 64.863722 
L 264.710023 72.196166 
L 266.341453 81.142443 
L 267.972883 91.561467 
L 269.604312 103.288922 
L 271.235742 116.13986 
L 274.498602 144.386995 
L 282.655751 219.144386 
L 285.918611 245.767078 
L 287.550041 257.494533 
L 289.181471 267.913557 
L 290.812901 276.859834 
L 292.444331 284.192278 
L 294.075761 289.79525 
L 295.70719 293.580389 
L 297.33862 295.488 
L 298.97005 295.488 
L 300.60148 293.580389 
L 302.23291 289.79525 
L 303.86434 284.192278 
L 305.49577 276.859834 
L 307.1272 267.913557 
L 308.75863 257.494533 
L 310.390059 245.767078 
L 312.021489 232.91614 
L 315.284349 204.669005 
L 323.441498 129.911614 
L 326.704358 103.288922 
L 328.335788 91.561467 
L 329.967218 81.142443 
L 331.598648 72.196166 
L 333.230078 64.863722 
L 334.861508 59.26075 
L 336.492937 55.475611 
L 338.124367 53.568 
L 339.755797 53.568 
L 341.387227 55.475611 
L 343.018657 59.26075 
L 344.650087 64.863722 
L 346.281517 72.196166 
L 347.912947 81.142443 
L 349.544376 91.561467 
L 351.175806 103.288922 
L 352.807236 116.13986 
L 356.070096 144.386995 
L 364.227245 219.144386 
L 367.490105 245.767078 
L 369.121535 257.494533 
L 370.752965 267.913557 
L 372.384395 276.859834 
L 374.015825 284.192278 
L 375.647254 289.79525 
L 377.278684 293.580389 
L 378.910114 295.488 
L 380.541544 295.488 
L 382.172974 293.580389 
L 383.804404 289.79525 
L 385.435834 284.192278 
L 387.067264 276.859834 
L 388.698693 267.913557 
L 390.330123 257.494533 
L 391.961553 245.767078 
L 393.592983 232.91614 
L 396.855843 204.669005 
L 398.487273 189.718282 
L 398.487273 189.718282 
" clip-path="url(#p46619dab7e)" style="fill: none; stroke: #000000; stroke-width: 1.5; stroke-linecap: square"/>
   </g>
   <g id="patch_3">
    <path d="M 57.6 307.584 
L 57.6 41.472 
" style="fill: none; stroke: #000000; stroke-width: 0.8; stroke-linejoin: miter; stroke-linecap: square"/>
   </g>
   <g id="patch_4">
    <path d="M 414.72 307.584 
L 414.72 41.472 
" style="fill: none; stroke: #000000; stroke-width: 0.8; stroke-linejoin: miter; stroke-linecap: square"/>
   </g>
   <g id="patch_5">
    <path d="M 57.6 307.584 
L 414.72 307.584 
" style="fill: none; stroke: #000000; stroke-width: 0.8; stroke-linejoin: miter; stroke-linecap: square"/>
   </g>
   <g id="patch_6">
    <path d="M 57.6 41.472 
L 414.72 41.472 
" style="fill: none; stroke: #000000; stroke-width: 0.8; stroke-linejoin: miter; stroke-linecap: square"/>
   </g>
  </g>
 </g>
 <defs>
  <clipPath id="p46619dab7e">
   <rect x="57.6" y="41.472" width="357.12" height="266.112"/>
  </clipPath>
 </defs>
</svg>
