<?xml version="1.0" encoding="utf-8" standalone="no"?>
<!DOCTYPE svg PUBLIC "-//W3C//DTD SVG 1.1//EN"
  "http://www.w3.org/Graphics/SVG/1.1/DTD/svg11.dtd">
<svg xmlns:xlink="http://www.w3.org/1999/xlink" width="1382.4pt" height="706.32pt" viewBox="0 0 1382.4 706.32" xmlns="http://www.w3.org/2000/svg" version="1.1">
 <metadata>
  <rdf:RDF xmlns:dc="http://purl.org/dc/elements/1.1/" xmlns:cc="http://creativecommons.org/ns#" xmlns:rdf="http://www.w3.org/1999/02/22-rdf-syntax-ns#">
   <cc:Work>
    <dc:type rdf:resource="http://purl.org/dc/dcmitype/StillImage"/>
    <dc:date>2022-07-04T16:21:16.212078</dc:date>
    <dc:format>image/svg+xml</dc:format>
    <dc:creator>
     <cc:Agent>
      <dc:title>Matplotlib v3.5.2, https://matplotlib.org/</dc:title>
     </cc:Agent>
    </dc:creator>
   </cc:Work>
  </rdf:RDF>
 </metadata>
 <defs>
  <style type="text/css">*{stroke-linejoin: round; stroke-linecap: butt}</style>
 </defs>
 <g id="figure_1">
  <g id="patch_1">
   <path d="M 0 706.32 
L 1382.4 706.32 
L 1382.4 0 
L 0 0 
z
" style="fill: #ffffff"/>
  </g>
  <g id="axes_1">
   <g id="patch_2">
    <path d="M 980.4132 356.6916 
C 980.4132 320.981659 973.37912 285.618953 959.713518 252.62727 
C 946.047915 219.635586 926.016551 189.656531 900.76581 164.40579 
C 875.515069 139.155049 845.536014 119.123685 812.54433 105.458082 
C 779.552647 91.79248 744.189941 84.7584 708.48 84.7584 
C 672.770059 84.7584 637.407353 91.79248 604.41567 105.458082 
C 571.423986 119.123685 541.444931 139.155049 516.19419 164.40579 
C 490.943449 189.656531 470.912085 219.635586 457.246482 252.62727 
C 443.58088 285.618953 436.5468 320.981659 436.5468 356.6916 
C 436.5468 392.401541 443.58088 427.764247 457.246482 460.75593 
C 470.912085 493.747614 490.943449 523.726669 516.19419 548.97741 
C 541.444931 574.228151 571.423986 594.259515 604.41567 607.925118 
C 637.407353 621.59072 672.770059 628.6248 708.48 628.6248 
C 744.189941 628.6248 779.552647 621.59072 812.54433 607.925118 
C 845.536014 594.259515 875.515069 574.228151 900.76581 548.97741 
C 926.016551 523.726669 946.047915 493.747614 959.713518 460.75593 
C 973.37912 427.764247 980.4132 392.401541 980.4132 356.6916 
M 708.48 356.6916 
C 708.48 356.6916 708.48 356.6916 708.48 356.6916 
C 708.48 356.6916 708.48 356.6916 708.48 356.6916 
C 708.48 356.6916 708.48 356.6916 708.48 356.6916 
C 708.48 356.6916 708.48 356.6916 708.48 356.6916 
C 708.48 356.6916 708.48 356.6916 708.48 356.6916 
C 708.48 356.6916 708.48 356.6916 708.48 356.6916 
C 708.48 356.6916 708.48 356.6916 708.48 356.6916 
C 708.48 356.6916 708.48 356.6916 708.48 356.6916 
C 708.48 356.6916 708.48 356.6916 708.48 356.6916 
C 708.48 356.6916 708.48 356.6916 708.48 356.6916 
C 708.48 356.6916 708.48 356.6916 708.48 356.6916 
C 708.48 356.6916 708.48 356.6916 708.48 356.6916 
C 708.48 356.6916 708.48 356.6916 708.48 356.6916 
C 708.48 356.6916 708.48 356.6916 708.48 356.6916 
C 708.48 356.6916 708.48 356.6916 708.48 356.6916 
C 708.48 356.6916 708.48 356.6916 708.48 356.6916 
M 980.4132 356.6916 
z
" style="fill: #e5e5e5"/>
   </g>
   <g id="matplotlib.axis_1">
    <g id="xtick_1">
     <g id="line2d_1">
      <path d="M 708.48 356.6916 
L 980.4132 356.6916 
" clip-path="url(#p903394c611)" style="fill: none; stroke: #ffffff; stroke-width: 0.8; stroke-linecap: square"/>
     </g>
     <g id="text_1">
      <!-- Math -->
      <g style="fill: #555555" transform="translate(981.906169 359.450975)scale(0.1 -0.1)">
       <defs>
        <path id="DejaVuSans-4d" d="M 628 4666 
L 1569 4666 
L 2759 1491 
L 3956 4666 
L 4897 4666 
L 4897 0 
L 4281 0 
L 4281 4097 
L 3078 897 
L 2444 897 
L 1241 4097 
L 1241 0 
L 628 0 
L 628 4666 
z
" transform="scale(0.015625)"/>
        <path id="DejaVuSans-61" d="M 2194 1759 
Q 1497 1759 1228 1600 
Q 959 1441 959 1056 
Q 959 750 1161 570 
Q 1363 391 1709 391 
Q 2188 391 2477 730 
Q 2766 1069 2766 1631 
L 2766 1759 
L 2194 1759 
z
M 3341 1997 
L 3341 0 
L 2766 0 
L 2766 531 
Q 2569 213 2275 61 
Q 1981 -91 1556 -91 
Q 1019 -91 701 211 
Q 384 513 384 1019 
Q 384 1609 779 1909 
Q 1175 2209 1959 2209 
L 2766 2209 
L 2766 2266 
Q 2766 2663 2505 2880 
Q 2244 3097 1772 3097 
Q 1472 3097 1187 3025 
Q 903 2953 641 2809 
L 641 3341 
Q 956 3463 1253 3523 
Q 1550 3584 1831 3584 
Q 2591 3584 2966 3190 
Q 3341 2797 3341 1997 
z
" transform="scale(0.015625)"/>
        <path id="DejaVuSans-74" d="M 1172 4494 
L 1172 3500 
L 2356 3500 
L 2356 3053 
L 1172 3053 
L 1172 1153 
Q 1172 725 1289 603 
Q 1406 481 1766 481 
L 2356 481 
L 2356 0 
L 1766 0 
Q 1100 0 847 248 
Q 594 497 594 1153 
L 594 3053 
L 172 3053 
L 172 3500 
L 594 3500 
L 594 4494 
L 1172 4494 
z
" transform="scale(0.015625)"/>
        <path id="DejaVuSans-68" d="M 3513 2113 
L 3513 0 
L 2938 0 
L 2938 2094 
Q 2938 2591 2744 2837 
Q 2550 3084 2163 3084 
Q 1697 3084 1428 2787 
Q 1159 2491 1159 1978 
L 1159 0 
L 581 0 
L 581 4863 
L 1159 4863 
L 1159 2956 
Q 1366 3272 1645 3428 
Q 1925 3584 2291 3584 
Q 2894 3584 3203 3211 
Q 3513 2838 3513 2113 
z
" transform="scale(0.015625)"/>
       </defs>
       <use xlink:href="#DejaVuSans-4d"/>
       <use xlink:href="#DejaVuSans-61" x="86.279297"/>
       <use xlink:href="#DejaVuSans-74" x="147.558594"/>
       <use xlink:href="#DejaVuSans-68" x="186.767578"/>
      </g>
     </g>
    </g>
    <g id="xtick_2">
     <g id="line2d_2">
      <path d="M 708.48 356.6916 
L 844.4466 121.190541 
" clip-path="url(#p903394c611)" style="fill: none; stroke: #ffffff; stroke-width: 0.8; stroke-linecap: square"/>
     </g>
     <g id="text_2">
      <!-- Chinese -->
      <g style="fill: #555555" transform="translate(831.470819 111.82556)scale(0.1 -0.1)">
       <defs>
        <path id="DejaVuSans-43" d="M 4122 4306 
L 4122 3641 
Q 3803 3938 3442 4084 
Q 3081 4231 2675 4231 
Q 1875 4231 1450 3742 
Q 1025 3253 1025 2328 
Q 1025 1406 1450 917 
Q 1875 428 2675 428 
Q 3081 428 3442 575 
Q 3803 722 4122 1019 
L 4122 359 
Q 3791 134 3420 21 
Q 3050 -91 2638 -91 
Q 1578 -91 968 557 
Q 359 1206 359 2328 
Q 359 3453 968 4101 
Q 1578 4750 2638 4750 
Q 3056 4750 3426 4639 
Q 3797 4528 4122 4306 
z
" transform="scale(0.015625)"/>
        <path id="DejaVuSans-69" d="M 603 3500 
L 1178 3500 
L 1178 0 
L 603 0 
L 603 3500 
z
M 603 4863 
L 1178 4863 
L 1178 4134 
L 603 4134 
L 603 4863 
z
" transform="scale(0.015625)"/>
        <path id="DejaVuSans-6e" d="M 3513 2113 
L 3513 0 
L 2938 0 
L 2938 2094 
Q 2938 2591 2744 2837 
Q 2550 3084 2163 3084 
Q 1697 3084 1428 2787 
Q 1159 2491 1159 1978 
L 1159 0 
L 581 0 
L 581 3500 
L 1159 3500 
L 1159 2956 
Q 1366 3272 1645 3428 
Q 1925 3584 2291 3584 
Q 2894 3584 3203 3211 
Q 3513 2838 3513 2113 
z
" transform="scale(0.015625)"/>
        <path id="DejaVuSans-65" d="M 3597 1894 
L 3597 1613 
L 953 1613 
Q 991 1019 1311 708 
Q 1631 397 2203 397 
Q 2534 397 2845 478 
Q 3156 559 3463 722 
L 3463 178 
Q 3153 47 2828 -22 
Q 2503 -91 2169 -91 
Q 1331 -91 842 396 
Q 353 884 353 1716 
Q 353 2575 817 3079 
Q 1281 3584 2069 3584 
Q 2775 3584 3186 3129 
Q 3597 2675 3597 1894 
z
M 3022 2063 
Q 3016 2534 2758 2815 
Q 2500 3097 2075 3097 
Q 1594 3097 1305 2825 
Q 1016 2553 972 2059 
L 3022 2063 
z
" transform="scale(0.015625)"/>
        <path id="DejaVuSans-73" d="M 2834 3397 
L 2834 2853 
Q 2591 2978 2328 3040 
Q 2066 3103 1784 3103 
Q 1356 3103 1142 2972 
Q 928 2841 928 2578 
Q 928 2378 1081 2264 
Q 1234 2150 1697 2047 
L 1894 2003 
Q 2506 1872 2764 1633 
Q 3022 1394 3022 966 
Q 3022 478 2636 193 
Q 2250 -91 1575 -91 
Q 1294 -91 989 -36 
Q 684 19 347 128 
L 347 722 
Q 666 556 975 473 
Q 1284 391 1588 391 
Q 1994 391 2212 530 
Q 2431 669 2431 922 
Q 2431 1156 2273 1281 
Q 2116 1406 1581 1522 
L 1381 1569 
Q 847 1681 609 1914 
Q 372 2147 372 2553 
Q 372 3047 722 3315 
Q 1072 3584 1716 3584 
Q 2034 3584 2315 3537 
Q 2597 3491 2834 3397 
z
" transform="scale(0.015625)"/>
       </defs>
       <use xlink:href="#DejaVuSans-43"/>
       <use xlink:href="#DejaVuSans-68" x="69.824219"/>
       <use xlink:href="#DejaVuSans-69" x="133.203125"/>
       <use xlink:href="#DejaVuSans-6e" x="160.986328"/>
       <use xlink:href="#DejaVuSans-65" x="224.365234"/>
       <use xlink:href="#DejaVuSans-73" x="285.888672"/>
       <use xlink:href="#DejaVuSans-65" x="337.988281"/>
      </g>
     </g>
    </g>
    <g id="xtick_3">
     <g id="line2d_3">
      <path d="M 708.48 356.6916 
L 572.5134 121.190541 
" clip-path="url(#p903394c611)" style="fill: none; stroke: #ffffff; stroke-width: 0.8; stroke-linecap: square"/>
     </g>
     <g id="text_3">
      <!-- English -->
      <g style="fill: #555555" transform="translate(547.459494 111.82556)scale(0.1 -0.1)">
       <defs>
        <path id="DejaVuSans-45" d="M 628 4666 
L 3578 4666 
L 3578 4134 
L 1259 4134 
L 1259 2753 
L 3481 2753 
L 3481 2222 
L 1259 2222 
L 1259 531 
L 3634 531 
L 3634 0 
L 628 0 
L 628 4666 
z
" transform="scale(0.015625)"/>
        <path id="DejaVuSans-67" d="M 2906 1791 
Q 2906 2416 2648 2759 
Q 2391 3103 1925 3103 
Q 1463 3103 1205 2759 
Q 947 2416 947 1791 
Q 947 1169 1205 825 
Q 1463 481 1925 481 
Q 2391 481 2648 825 
Q 2906 1169 2906 1791 
z
M 3481 434 
Q 3481 -459 3084 -895 
Q 2688 -1331 1869 -1331 
Q 1566 -1331 1297 -1286 
Q 1028 -1241 775 -1147 
L 775 -588 
Q 1028 -725 1275 -790 
Q 1522 -856 1778 -856 
Q 2344 -856 2625 -561 
Q 2906 -266 2906 331 
L 2906 616 
Q 2728 306 2450 153 
Q 2172 0 1784 0 
Q 1141 0 747 490 
Q 353 981 353 1791 
Q 353 2603 747 3093 
Q 1141 3584 1784 3584 
Q 2172 3584 2450 3431 
Q 2728 3278 2906 2969 
L 2906 3500 
L 3481 3500 
L 3481 434 
z
" transform="scale(0.015625)"/>
        <path id="DejaVuSans-6c" d="M 603 4863 
L 1178 4863 
L 1178 0 
L 603 0 
L 603 4863 
z
" transform="scale(0.015625)"/>
       </defs>
       <use xlink:href="#DejaVuSans-45"/>
       <use xlink:href="#DejaVuSans-6e" x="63.183594"/>
       <use xlink:href="#DejaVuSans-67" x="126.5625"/>
       <use xlink:href="#DejaVuSans-6c" x="190.039062"/>
       <use xlink:href="#DejaVuSans-69" x="217.822266"/>
       <use xlink:href="#DejaVuSans-73" x="245.605469"/>
       <use xlink:href="#DejaVuSans-68" x="297.705078"/>
      </g>
     </g>
    </g>
    <g id="xtick_4">
     <g id="line2d_4">
      <path d="M 708.48 356.6916 
L 436.5468 356.6916 
" clip-path="url(#p903394c611)" style="fill: none; stroke: #ffffff; stroke-width: 0.8; stroke-linecap: square"/>
     </g>
     <g id="text_4">
      <!-- Physics -->
      <g style="fill: #555555" transform="translate(404.056175 359.450975)scale(0.1 -0.1)">
       <defs>
        <path id="DejaVuSans-50" d="M 1259 4147 
L 1259 2394 
L 2053 2394 
Q 2494 2394 2734 2622 
Q 2975 2850 2975 3272 
Q 2975 3691 2734 3919 
Q 2494 4147 2053 4147 
L 1259 4147 
z
M 628 4666 
L 2053 4666 
Q 2838 4666 3239 4311 
Q 3641 3956 3641 3272 
Q 3641 2581 3239 2228 
Q 2838 1875 2053 1875 
L 1259 1875 
L 1259 0 
L 628 0 
L 628 4666 
z
" transform="scale(0.015625)"/>
        <path id="DejaVuSans-79" d="M 2059 -325 
Q 1816 -950 1584 -1140 
Q 1353 -1331 966 -1331 
L 506 -1331 
L 506 -850 
L 844 -850 
Q 1081 -850 1212 -737 
Q 1344 -625 1503 -206 
L 1606 56 
L 191 3500 
L 800 3500 
L 1894 763 
L 2988 3500 
L 3597 3500 
L 2059 -325 
z
" transform="scale(0.015625)"/>
        <path id="DejaVuSans-63" d="M 3122 3366 
L 3122 2828 
Q 2878 2963 2633 3030 
Q 2388 3097 2138 3097 
Q 1578 3097 1268 2742 
Q 959 2388 959 1747 
Q 959 1106 1268 751 
Q 1578 397 2138 397 
Q 2388 397 2633 464 
Q 2878 531 3122 666 
L 3122 134 
Q 2881 22 2623 -34 
Q 2366 -91 2075 -91 
Q 1284 -91 818 406 
Q 353 903 353 1747 
Q 353 2603 823 3093 
Q 1294 3584 2113 3584 
Q 2378 3584 2631 3529 
Q 2884 3475 3122 3366 
z
" transform="scale(0.015625)"/>
       </defs>
       <use xlink:href="#DejaVuSans-50"/>
       <use xlink:href="#DejaVuSans-68" x="60.302734"/>
       <use xlink:href="#DejaVuSans-79" x="123.681641"/>
       <use xlink:href="#DejaVuSans-73" x="182.861328"/>
       <use xlink:href="#DejaVuSans-69" x="234.960938"/>
       <use xlink:href="#DejaVuSans-63" x="262.744141"/>
       <use xlink:href="#DejaVuSans-73" x="317.724609"/>
      </g>
     </g>
    </g>
    <g id="xtick_5">
     <g id="line2d_5">
      <path d="M 708.48 356.6916 
L 572.5134 592.192659 
" clip-path="url(#p903394c611)" style="fill: none; stroke: #ffffff; stroke-width: 0.8; stroke-linecap: square"/>
     </g>
     <g id="text_5">
      <!-- Chemistry -->
      <g style="fill: #555555" transform="translate(539.937619 607.07639)scale(0.1 -0.1)">
       <defs>
        <path id="DejaVuSans-6d" d="M 3328 2828 
Q 3544 3216 3844 3400 
Q 4144 3584 4550 3584 
Q 5097 3584 5394 3201 
Q 5691 2819 5691 2113 
L 5691 0 
L 5113 0 
L 5113 2094 
Q 5113 2597 4934 2840 
Q 4756 3084 4391 3084 
Q 3944 3084 3684 2787 
Q 3425 2491 3425 1978 
L 3425 0 
L 2847 0 
L 2847 2094 
Q 2847 2600 2669 2842 
Q 2491 3084 2119 3084 
Q 1678 3084 1418 2786 
Q 1159 2488 1159 1978 
L 1159 0 
L 581 0 
L 581 3500 
L 1159 3500 
L 1159 2956 
Q 1356 3278 1631 3431 
Q 1906 3584 2284 3584 
Q 2666 3584 2933 3390 
Q 3200 3197 3328 2828 
z
" transform="scale(0.015625)"/>
        <path id="DejaVuSans-72" d="M 2631 2963 
Q 2534 3019 2420 3045 
Q 2306 3072 2169 3072 
Q 1681 3072 1420 2755 
Q 1159 2438 1159 1844 
L 1159 0 
L 581 0 
L 581 3500 
L 1159 3500 
L 1159 2956 
Q 1341 3275 1631 3429 
Q 1922 3584 2338 3584 
Q 2397 3584 2469 3576 
Q 2541 3569 2628 3553 
L 2631 2963 
z
" transform="scale(0.015625)"/>
       </defs>
       <use xlink:href="#DejaVuSans-43"/>
       <use xlink:href="#DejaVuSans-68" x="69.824219"/>
       <use xlink:href="#DejaVuSans-65" x="133.203125"/>
       <use xlink:href="#DejaVuSans-6d" x="194.726562"/>
       <use xlink:href="#DejaVuSans-69" x="292.138672"/>
       <use xlink:href="#DejaVuSans-73" x="319.921875"/>
       <use xlink:href="#DejaVuSans-74" x="372.021484"/>
       <use xlink:href="#DejaVuSans-72" x="411.230469"/>
       <use xlink:href="#DejaVuSans-79" x="452.34375"/>
      </g>
     </g>
    </g>
    <g id="xtick_6">
     <g id="line2d_6">
      <path d="M 708.48 356.6916 
L 844.4466 592.192659 
" clip-path="url(#p903394c611)" style="fill: none; stroke: #ffffff; stroke-width: 0.8; stroke-linecap: square"/>
     </g>
     <g id="text_6">
      <!-- Geography -->
      <g style="fill: #555555" transform="translate(823.84035 607.07639)scale(0.1 -0.1)">
       <defs>
        <path id="DejaVuSans-47" d="M 3809 666 
L 3809 1919 
L 2778 1919 
L 2778 2438 
L 4434 2438 
L 4434 434 
Q 4069 175 3628 42 
Q 3188 -91 2688 -91 
Q 1594 -91 976 548 
Q 359 1188 359 2328 
Q 359 3472 976 4111 
Q 1594 4750 2688 4750 
Q 3144 4750 3555 4637 
Q 3966 4525 4313 4306 
L 4313 3634 
Q 3963 3931 3569 4081 
Q 3175 4231 2741 4231 
Q 1884 4231 1454 3753 
Q 1025 3275 1025 2328 
Q 1025 1384 1454 906 
Q 1884 428 2741 428 
Q 3075 428 3337 486 
Q 3600 544 3809 666 
z
" transform="scale(0.015625)"/>
        <path id="DejaVuSans-6f" d="M 1959 3097 
Q 1497 3097 1228 2736 
Q 959 2375 959 1747 
Q 959 1119 1226 758 
Q 1494 397 1959 397 
Q 2419 397 2687 759 
Q 2956 1122 2956 1747 
Q 2956 2369 2687 2733 
Q 2419 3097 1959 3097 
z
M 1959 3584 
Q 2709 3584 3137 3096 
Q 3566 2609 3566 1747 
Q 3566 888 3137 398 
Q 2709 -91 1959 -91 
Q 1206 -91 779 398 
Q 353 888 353 1747 
Q 353 2609 779 3096 
Q 1206 3584 1959 3584 
z
" transform="scale(0.015625)"/>
        <path id="DejaVuSans-70" d="M 1159 525 
L 1159 -1331 
L 581 -1331 
L 581 3500 
L 1159 3500 
L 1159 2969 
Q 1341 3281 1617 3432 
Q 1894 3584 2278 3584 
Q 2916 3584 3314 3078 
Q 3713 2572 3713 1747 
Q 3713 922 3314 415 
Q 2916 -91 2278 -91 
Q 1894 -91 1617 61 
Q 1341 213 1159 525 
z
M 3116 1747 
Q 3116 2381 2855 2742 
Q 2594 3103 2138 3103 
Q 1681 3103 1420 2742 
Q 1159 2381 1159 1747 
Q 1159 1113 1420 752 
Q 1681 391 2138 391 
Q 2594 391 2855 752 
Q 3116 1113 3116 1747 
z
" transform="scale(0.015625)"/>
       </defs>
       <use xlink:href="#DejaVuSans-47"/>
       <use xlink:href="#DejaVuSans-65" x="77.490234"/>
       <use xlink:href="#DejaVuSans-6f" x="139.013672"/>
       <use xlink:href="#DejaVuSans-67" x="200.195312"/>
       <use xlink:href="#DejaVuSans-72" x="263.671875"/>
       <use xlink:href="#DejaVuSans-61" x="304.785156"/>
       <use xlink:href="#DejaVuSans-70" x="366.064453"/>
       <use xlink:href="#DejaVuSans-68" x="429.541016"/>
       <use xlink:href="#DejaVuSans-79" x="492.919922"/>
      </g>
     </g>
    </g>
    <g id="xtick_7">
     <g id="line2d_7">
      <path d="M 708.48 356.6916 
L 980.4132 356.6916 
" clip-path="url(#p903394c611)" style="fill: none; stroke: #ffffff; stroke-width: 0.8; stroke-linecap: square"/>
     </g>
     <g id="text_7">
      <!-- Math -->
      <g style="fill: #555555" transform="translate(981.906169 359.450975)scale(0.1 -0.1)">
       <use xlink:href="#DejaVuSans-4d"/>
       <use xlink:href="#DejaVuSans-61" x="86.279297"/>
       <use xlink:href="#DejaVuSans-74" x="147.558594"/>
       <use xlink:href="#DejaVuSans-68" x="186.767578"/>
      </g>
     </g>
    </g>
   </g>
   <g id="matplotlib.axis_2">
    <g id="ytick_1">
     <g id="line2d_8">
      <path d="M 762.86664 356.6916 
C 762.86664 349.549612 761.459824 342.477071 758.726704 335.878734 
C 755.993583 329.280397 751.98731 323.284586 746.937162 318.234438 
C 741.887014 313.18429 735.891203 309.178017 729.292866 306.444896 
C 722.694529 303.711776 715.621988 302.30496 708.48 302.30496 
C 701.338012 302.30496 694.265471 303.711776 687.667134 306.444896 
C 681.068797 309.178017 675.072986 313.18429 670.022838 318.234438 
C 664.97269 323.284586 660.966417 329.280397 658.233296 335.878734 
C 655.500176 342.477071 654.09336 349.549612 654.09336 356.6916 
C 654.09336 363.833588 655.500176 370.906129 658.233296 377.504466 
C 660.966417 384.102803 664.97269 390.098614 670.022838 395.148762 
C 675.072986 400.19891 681.068797 404.205183 687.667134 406.938304 
C 694.265471 409.671424 701.338012 411.07824 708.48 411.07824 
C 715.621988 411.07824 722.694529 409.671424 729.292866 406.938304 
C 735.891203 404.205183 741.887014 400.19891 746.937162 395.148762 
C 751.98731 390.098614 755.993583 384.102803 758.726704 377.504466 
C 761.459824 370.906129 762.86664 363.833588 762.86664 356.6916 
" clip-path="url(#p903394c611)" style="fill: none; stroke: #ffffff; stroke-width: 0.8; stroke-linecap: square"/>
     </g>
     <g id="text_8">
      <!-- 20 -->
      <g style="fill: #555555" transform="translate(758.726704 333.799046)scale(0.1 -0.1)">
       <defs>
        <path id="DejaVuSans-32" d="M 1228 531 
L 3431 531 
L 3431 0 
L 469 0 
L 469 531 
Q 828 903 1448 1529 
Q 2069 2156 2228 2338 
Q 2531 2678 2651 2914 
Q 2772 3150 2772 3378 
Q 2772 3750 2511 3984 
Q 2250 4219 1831 4219 
Q 1534 4219 1204 4116 
Q 875 4013 500 3803 
L 500 4441 
Q 881 4594 1212 4672 
Q 1544 4750 1819 4750 
Q 2544 4750 2975 4387 
Q 3406 4025 3406 3419 
Q 3406 3131 3298 2873 
Q 3191 2616 2906 2266 
Q 2828 2175 2409 1742 
Q 1991 1309 1228 531 
z
" transform="scale(0.015625)"/>
        <path id="DejaVuSans-30" d="M 2034 4250 
Q 1547 4250 1301 3770 
Q 1056 3291 1056 2328 
Q 1056 1369 1301 889 
Q 1547 409 2034 409 
Q 2525 409 2770 889 
Q 3016 1369 3016 2328 
Q 3016 3291 2770 3770 
Q 2525 4250 2034 4250 
z
M 2034 4750 
Q 2819 4750 3233 4129 
Q 3647 3509 3647 2328 
Q 3647 1150 3233 529 
Q 2819 -91 2034 -91 
Q 1250 -91 836 529 
Q 422 1150 422 2328 
Q 422 3509 836 4129 
Q 1250 4750 2034 4750 
z
" transform="scale(0.015625)"/>
       </defs>
       <use xlink:href="#DejaVuSans-32"/>
       <use xlink:href="#DejaVuSans-30" x="63.623047"/>
      </g>
     </g>
    </g>
    <g id="ytick_2">
     <g id="line2d_9">
      <path d="M 817.25328 356.6916 
C 817.25328 342.407624 814.439648 328.262541 808.973407 315.065868 
C 803.507166 301.869195 795.49462 289.877573 785.394324 279.777276 
C 775.294027 269.67698 763.302405 261.664434 750.105732 256.198193 
C 736.909059 250.731952 722.763976 247.91832 708.48 247.91832 
C 694.196024 247.91832 680.050941 250.731952 666.854268 256.198193 
C 653.657595 261.664434 641.665973 269.67698 631.565676 279.777276 
C 621.46538 289.877573 613.452834 301.869195 607.986593 315.065868 
C 602.520352 328.262541 599.70672 342.407624 599.70672 356.6916 
C 599.70672 370.975576 602.520352 385.120659 607.986593 398.317332 
C 613.452834 411.514005 621.46538 423.505627 631.565676 433.605924 
C 641.665973 443.70622 653.657595 451.718766 666.854268 457.185007 
C 680.050941 462.651248 694.196024 465.46488 708.48 465.46488 
C 722.763976 465.46488 736.909059 462.651248 750.105732 457.185007 
C 763.302405 451.718766 775.294027 443.70622 785.394324 433.605924 
C 795.49462 423.505627 803.507166 411.514005 808.973407 398.317332 
C 814.439648 385.120659 817.25328 370.975576 817.25328 356.6916 
" clip-path="url(#p903394c611)" style="fill: none; stroke: #ffffff; stroke-width: 0.8; stroke-linecap: square"/>
     </g>
     <g id="text_9">
      <!-- 40 -->
      <g style="fill: #555555" transform="translate(808.973407 312.98618)scale(0.1 -0.1)">
       <defs>
        <path id="DejaVuSans-34" d="M 2419 4116 
L 825 1625 
L 2419 1625 
L 2419 4116 
z
M 2253 4666 
L 3047 4666 
L 3047 1625 
L 3713 1625 
L 3713 1100 
L 3047 1100 
L 3047 0 
L 2419 0 
L 2419 1100 
L 313 1100 
L 313 1709 
L 2253 4666 
z
" transform="scale(0.015625)"/>
       </defs>
       <use xlink:href="#DejaVuSans-34"/>
       <use xlink:href="#DejaVuSans-30" x="63.623047"/>
      </g>
     </g>
    </g>
    <g id="ytick_3">
     <g id="line2d_10">
      <path d="M 871.63992 356.6916 
C 871.63992 335.265636 867.419472 314.048012 859.220111 294.253002 
C 851.020749 274.457992 839.001931 256.470559 823.851486 241.320114 
C 808.701041 226.169669 790.713608 214.150851 770.918598 205.951489 
C 751.123588 197.752128 729.905964 193.53168 708.48 193.53168 
C 687.054036 193.53168 665.836412 197.752128 646.041402 205.951489 
C 626.246392 214.150851 608.258959 226.169669 593.108514 241.320114 
C 577.958069 256.470559 565.939251 274.457992 557.739889 294.253002 
C 549.540528 314.048012 545.32008 335.265636 545.32008 356.6916 
C 545.32008 378.117564 549.540528 399.335188 557.739889 419.130198 
C 565.939251 438.925208 577.958069 456.912641 593.108514 472.063086 
C 608.258959 487.213531 626.246392 499.232349 646.041402 507.431711 
C 665.836412 515.631072 687.054036 519.85152 708.48 519.85152 
C 729.905964 519.85152 751.123588 515.631072 770.918598 507.431711 
C 790.713608 499.232349 808.701041 487.213531 823.851486 472.063086 
C 839.001931 456.912641 851.020749 438.925208 859.220111 419.130198 
C 867.419472 399.335188 871.63992 378.117564 871.63992 356.6916 
" clip-path="url(#p903394c611)" style="fill: none; stroke: #ffffff; stroke-width: 0.8; stroke-linecap: square"/>
     </g>
     <g id="text_10">
      <!-- 60 -->
      <g style="fill: #555555" transform="translate(859.220111 292.173314)scale(0.1 -0.1)">
       <defs>
        <path id="DejaVuSans-36" d="M 2113 2584 
Q 1688 2584 1439 2293 
Q 1191 2003 1191 1497 
Q 1191 994 1439 701 
Q 1688 409 2113 409 
Q 2538 409 2786 701 
Q 3034 994 3034 1497 
Q 3034 2003 2786 2293 
Q 2538 2584 2113 2584 
z
M 3366 4563 
L 3366 3988 
Q 3128 4100 2886 4159 
Q 2644 4219 2406 4219 
Q 1781 4219 1451 3797 
Q 1122 3375 1075 2522 
Q 1259 2794 1537 2939 
Q 1816 3084 2150 3084 
Q 2853 3084 3261 2657 
Q 3669 2231 3669 1497 
Q 3669 778 3244 343 
Q 2819 -91 2113 -91 
Q 1303 -91 875 529 
Q 447 1150 447 2328 
Q 447 3434 972 4092 
Q 1497 4750 2381 4750 
Q 2619 4750 2861 4703 
Q 3103 4656 3366 4563 
z
" transform="scale(0.015625)"/>
       </defs>
       <use xlink:href="#DejaVuSans-36"/>
       <use xlink:href="#DejaVuSans-30" x="63.623047"/>
      </g>
     </g>
    </g>
    <g id="ytick_4">
     <g id="line2d_11">
      <path d="M 926.02656 356.6916 
C 926.02656 328.123647 920.399296 299.833482 909.466814 273.440136 
C 898.534332 247.046789 882.509241 223.063545 862.308648 202.862952 
C 842.108055 182.662359 818.124811 166.637268 791.731464 155.704786 
C 765.338118 144.772304 737.047953 139.14504 708.48 139.14504 
C 679.912047 139.14504 651.621882 144.772304 625.228536 155.704786 
C 598.835189 166.637268 574.851945 182.662359 554.651352 202.862952 
C 534.450759 223.063545 518.425668 247.046789 507.493186 273.440136 
C 496.560704 299.833482 490.93344 328.123647 490.93344 356.6916 
C 490.93344 385.259553 496.560704 413.549718 507.493186 439.943064 
C 518.425668 466.336411 534.450759 490.319655 554.651352 510.520248 
C 574.851945 530.720841 598.835189 546.745932 625.228536 557.678414 
C 651.621882 568.610896 679.912047 574.23816 708.48 574.23816 
C 737.047953 574.23816 765.338118 568.610896 791.731464 557.678414 
C 818.124811 546.745932 842.108055 530.720841 862.308648 510.520248 
C 882.509241 490.319655 898.534332 466.336411 909.466814 439.943064 
C 920.399296 413.549718 926.02656 385.259553 926.02656 356.6916 
" clip-path="url(#p903394c611)" style="fill: none; stroke: #ffffff; stroke-width: 0.8; stroke-linecap: square"/>
     </g>
     <g id="text_11">
      <!-- 80 -->
      <g style="fill: #555555" transform="translate(909.466814 271.360448)scale(0.1 -0.1)">
       <defs>
        <path id="DejaVuSans-38" d="M 2034 2216 
Q 1584 2216 1326 1975 
Q 1069 1734 1069 1313 
Q 1069 891 1326 650 
Q 1584 409 2034 409 
Q 2484 409 2743 651 
Q 3003 894 3003 1313 
Q 3003 1734 2745 1975 
Q 2488 2216 2034 2216 
z
M 1403 2484 
Q 997 2584 770 2862 
Q 544 3141 544 3541 
Q 544 4100 942 4425 
Q 1341 4750 2034 4750 
Q 2731 4750 3128 4425 
Q 3525 4100 3525 3541 
Q 3525 3141 3298 2862 
Q 3072 2584 2669 2484 
Q 3125 2378 3379 2068 
Q 3634 1759 3634 1313 
Q 3634 634 3220 271 
Q 2806 -91 2034 -91 
Q 1263 -91 848 271 
Q 434 634 434 1313 
Q 434 1759 690 2068 
Q 947 2378 1403 2484 
z
M 1172 3481 
Q 1172 3119 1398 2916 
Q 1625 2713 2034 2713 
Q 2441 2713 2670 2916 
Q 2900 3119 2900 3481 
Q 2900 3844 2670 4047 
Q 2441 4250 2034 4250 
Q 1625 4250 1398 4047 
Q 1172 3844 1172 3481 
z
" transform="scale(0.015625)"/>
       </defs>
       <use xlink:href="#DejaVuSans-38"/>
       <use xlink:href="#DejaVuSans-30" x="63.623047"/>
      </g>
     </g>
    </g>
    <g id="ytick_5">
     <g id="line2d_12">
      <path d="M 980.4132 356.6916 
C 980.4132 320.981659 973.37912 285.618953 959.713518 252.62727 
C 946.047915 219.635586 926.016551 189.656531 900.76581 164.40579 
C 875.515069 139.155049 845.536014 119.123685 812.54433 105.458082 
C 779.552647 91.79248 744.189941 84.7584 708.48 84.7584 
C 672.770059 84.7584 637.407353 91.79248 604.41567 105.458082 
C 571.423986 119.123685 541.444931 139.155049 516.19419 164.40579 
C 490.943449 189.656531 470.912085 219.635586 457.246482 252.62727 
C 443.58088 285.618953 436.5468 320.981659 436.5468 356.6916 
C 436.5468 392.401541 443.58088 427.764247 457.246482 460.75593 
C 470.912085 493.747614 490.943449 523.726669 516.19419 548.97741 
C 541.444931 574.228151 571.423986 594.259515 604.41567 607.925118 
C 637.407353 621.59072 672.770059 628.6248 708.48 628.6248 
C 744.189941 628.6248 779.552647 621.59072 812.54433 607.925118 
C 845.536014 594.259515 875.515069 574.228151 900.76581 548.97741 
C 926.016551 523.726669 946.047915 493.747614 959.713518 460.75593 
C 973.37912 427.764247 980.4132 392.401541 980.4132 356.6916 
" clip-path="url(#p903394c611)" style="fill: none; stroke: #ffffff; stroke-width: 0.8; stroke-linecap: square"/>
     </g>
     <g id="text_12">
      <!-- 100 -->
      <g style="fill: #555555" transform="translate(959.713518 250.547582)scale(0.1 -0.1)">
       <defs>
        <path id="DejaVuSans-31" d="M 794 531 
L 1825 531 
L 1825 4091 
L 703 3866 
L 703 4441 
L 1819 4666 
L 2450 4666 
L 2450 531 
L 3481 531 
L 3481 0 
L 794 0 
L 794 531 
z
" transform="scale(0.015625)"/>
       </defs>
       <use xlink:href="#DejaVuSans-31"/>
       <use xlink:href="#DejaVuSans-30" x="63.623047"/>
       <use xlink:href="#DejaVuSans-30" x="127.246094"/>
      </g>
     </g>
    </g>
   </g>
   <g id="patch_3">
    <path d="M 974.974536 356.6916 
L 824.05161 156.5157 
L 583.390728 140.030625 
L 450.14346 356.6916 
L 583.390728 573.352575 
L 722.07666 380.241706 
z
" clip-path="url(#p903394c611)" style="fill: #ff0000; opacity: 0.25"/>
   </g>
   <g id="patch_4">
    <path d="M 950.500548 356.6916 
L 735.67332 309.591388 
L 583.390728 140.030625 
L 477.33678 356.6916 
L 603.785718 538.027416 
L 825.411276 559.222511 
z
" clip-path="url(#p903394c611)" style="fill: #0000ff; opacity: 0.25"/>
   </g>
   <g id="line2d_13">
    <path d="M 974.974536 356.6916 
L 824.05161 156.5157 
L 583.390728 140.030625 
L 450.14346 356.6916 
L 583.390728 573.352575 
L 722.07666 380.241706 
L 974.974536 356.6916 
" clip-path="url(#p903394c611)" style="fill: none; stroke: #ff0000; stroke-width: 2; stroke-linecap: square"/>
    <defs>
     <path id="md93bf7cda5" d="M 0 3 
C 0.795609 3 1.55874 2.683901 2.12132 2.12132 
C 2.683901 1.55874 3 0.795609 3 0 
C 3 -0.795609 2.683901 -1.55874 2.12132 -2.12132 
C 1.55874 -2.683901 0.795609 -3 0 -3 
C -0.795609 -3 -1.55874 -2.683901 -2.12132 -2.12132 
C -2.683901 -1.55874 -3 -0.795609 -3 0 
C -3 0.795609 -2.683901 1.55874 -2.12132 2.12132 
C -1.55874 2.683901 -0.795609 3 0 3 
z
" style="stroke: #ff0000"/>
    </defs>
    <g clip-path="url(#p903394c611)">
     <use xlink:href="#md93bf7cda5" x="974.974536" y="356.6916" style="fill: #ff0000; stroke: #ff0000"/>
     <use xlink:href="#md93bf7cda5" x="824.05161" y="156.5157" style="fill: #ff0000; stroke: #ff0000"/>
     <use xlink:href="#md93bf7cda5" x="583.390728" y="140.030625" style="fill: #ff0000; stroke: #ff0000"/>
     <use xlink:href="#md93bf7cda5" x="450.14346" y="356.6916" style="fill: #ff0000; stroke: #ff0000"/>
     <use xlink:href="#md93bf7cda5" x="583.390728" y="573.352575" style="fill: #ff0000; stroke: #ff0000"/>
     <use xlink:href="#md93bf7cda5" x="722.07666" y="380.241706" style="fill: #ff0000; stroke: #ff0000"/>
     <use xlink:href="#md93bf7cda5" x="974.974536" y="356.6916" style="fill: #ff0000; stroke: #ff0000"/>
    </g>
   </g>
   <g id="line2d_14">
    <path d="M 950.500548 356.6916 
L 735.67332 309.591388 
L 583.390728 140.030625 
L 477.33678 356.6916 
L 603.785718 538.027416 
L 825.411276 559.222511 
L 950.500548 356.6916 
" clip-path="url(#p903394c611)" style="fill: none; stroke: #0000ff; stroke-width: 2; stroke-linecap: square"/>
    <defs>
     <path id="m93b50b1244" d="M 0 3 
C 0.795609 3 1.55874 2.683901 2.12132 2.12132 
C 2.683901 1.55874 3 0.795609 3 0 
C 3 -0.795609 2.683901 -1.55874 2.12132 -2.12132 
C 1.55874 -2.683901 0.795609 -3 0 -3 
C -0.795609 -3 -1.55874 -2.683901 -2.12132 -2.12132 
C -2.683901 -1.55874 -3 -0.795609 -3 0 
C -3 0.795609 -2.683901 1.55874 -2.12132 2.12132 
C -1.55874 2.683901 -0.795609 3 0 3 
z
" style="stroke: #0000ff"/>
    </defs>
    <g clip-path="url(#p903394c611)">
     <use xlink:href="#m93b50b1244" x="950.500548" y="356.6916" style="fill: #0000ff; stroke: #0000ff"/>
     <use xlink:href="#m93b50b1244" x="735.67332" y="309.591388" style="fill: #0000ff; stroke: #0000ff"/>
     <use xlink:href="#m93b50b1244" x="583.390728" y="140.030625" style="fill: #0000ff; stroke: #0000ff"/>
     <use xlink:href="#m93b50b1244" x="477.33678" y="356.6916" style="fill: #0000ff; stroke: #0000ff"/>
     <use xlink:href="#m93b50b1244" x="603.785718" y="538.027416" style="fill: #0000ff; stroke: #0000ff"/>
     <use xlink:href="#m93b50b1244" x="825.411276" y="559.222511" style="fill: #0000ff; stroke: #0000ff"/>
     <use xlink:href="#m93b50b1244" x="950.500548" y="356.6916" style="fill: #0000ff; stroke: #0000ff"/>
    </g>
   </g>
   <g id="patch_5">
    <path d="M 980.4132 356.6916 
C 980.4132 320.981659 973.37912 285.618953 959.713518 252.62727 
C 946.047915 219.635586 926.016551 189.656531 900.76581 164.40579 
C 875.515069 139.155049 845.536014 119.123685 812.54433 105.458082 
C 779.552647 91.79248 744.189941 84.7584 708.48 84.7584 
C 672.770059 84.7584 637.407353 91.79248 604.41567 105.458082 
C 571.423986 119.123685 541.444931 139.155049 516.19419 164.40579 
C 490.943449 189.656531 470.912085 219.635586 457.246482 252.62727 
C 443.58088 285.618953 436.5468 320.981659 436.5468 356.6916 
C 436.5468 392.401541 443.58088 427.764247 457.246482 460.75593 
C 470.912085 493.747614 490.943449 523.726669 516.19419 548.97741 
C 541.444931 574.228151 571.423986 594.259515 604.41567 607.925118 
C 637.407353 621.59072 672.770059 628.6248 708.48 628.6248 
C 744.189941 628.6248 779.552647 621.59072 812.54433 607.925118 
C 845.536014 594.259515 875.515069 574.228151 900.76581 548.97741 
C 926.016551 523.726669 946.047915 493.747614 959.713518 460.75593 
C 973.37912 427.764247 980.4132 392.401541 980.4132 356.6916 
" style="fill: none; stroke: #ffffff; stroke-linejoin: miter; stroke-linecap: square"/>
   </g>
   <g id="legend_1">
    <g id="patch_6">
     <path d="M 915.76945 122.11465 
L 973.4132 122.11465 
Q 975.4132 122.11465 975.4132 120.11465 
L 975.4132 91.7584 
Q 975.4132 89.7584 973.4132 89.7584 
L 915.76945 89.7584 
Q 913.76945 89.7584 913.76945 91.7584 
L 913.76945 120.11465 
Q 913.76945 122.11465 915.76945 122.11465 
z
" style="fill: #e5e5e5; opacity: 0.8; stroke: #cccccc; stroke-width: 0.5; stroke-linejoin: miter"/>
    </g>
    <g id="line2d_15">
     <path d="M 917.76945 97.856838 
L 927.76945 97.856838 
L 937.76945 97.856838 
" style="fill: none; stroke: #ff0000; stroke-width: 2; stroke-linecap: square"/>
     <g>
      <use xlink:href="#md93bf7cda5" x="927.76945" y="97.856838" style="fill: #ff0000; stroke: #ff0000"/>
     </g>
    </g>
    <g id="text_13">
     <!-- Anna -->
     <g transform="translate(945.76945 101.356838)scale(0.1 -0.1)">
      <defs>
       <path id="DejaVuSans-41" d="M 2188 4044 
L 1331 1722 
L 3047 1722 
L 2188 4044 
z
M 1831 4666 
L 2547 4666 
L 4325 0 
L 3669 0 
L 3244 1197 
L 1141 1197 
L 716 0 
L 50 0 
L 1831 4666 
z
" transform="scale(0.015625)"/>
      </defs>
      <use xlink:href="#DejaVuSans-41"/>
      <use xlink:href="#DejaVuSans-6e" x="68.408203"/>
      <use xlink:href="#DejaVuSans-6e" x="131.787109"/>
      <use xlink:href="#DejaVuSans-61" x="195.166016"/>
     </g>
    </g>
    <g id="line2d_16">
     <path d="M 917.76945 112.534963 
L 927.76945 112.534963 
L 937.76945 112.534963 
" style="fill: none; stroke: #0000ff; stroke-width: 2; stroke-linecap: square"/>
     <g>
      <use xlink:href="#m93b50b1244" x="927.76945" y="112.534963" style="fill: #0000ff; stroke: #0000ff"/>
     </g>
    </g>
    <g id="text_14">
     <!-- Jim -->
     <g transform="translate(945.76945 116.034963)scale(0.1 -0.1)">
      <defs>
       <path id="DejaVuSans-4a" d="M 628 4666 
L 1259 4666 
L 1259 325 
Q 1259 -519 939 -900 
Q 619 -1281 -91 -1281 
L -331 -1281 
L -331 -750 
L -134 -750 
Q 284 -750 456 -515 
Q 628 -281 628 325 
L 628 4666 
z
" transform="scale(0.015625)"/>
      </defs>
      <use xlink:href="#DejaVuSans-4a"/>
      <use xlink:href="#DejaVuSans-69" x="29.492188"/>
      <use xlink:href="#DejaVuSans-6d" x="57.275391"/>
     </g>
    </g>
   </g>
  </g>
  <g id="text_15">
   <!-- DIFF -->
   <g transform="translate(665.515625 29.323275)scale(0.2 -0.2)">
    <defs>
     <path id="DejaVuSans-Bold-44" d="M 1791 3756 
L 1791 909 
L 2222 909 
Q 2959 909 3348 1275 
Q 3738 1641 3738 2338 
Q 3738 3031 3350 3393 
Q 2963 3756 2222 3756 
L 1791 3756 
z
M 588 4666 
L 1856 4666 
Q 2919 4666 3439 4514 
Q 3959 4363 4331 4000 
Q 4659 3684 4818 3271 
Q 4978 2859 4978 2338 
Q 4978 1809 4818 1395 
Q 4659 981 4331 666 
Q 3956 303 3431 151 
Q 2906 0 1856 0 
L 588 0 
L 588 4666 
z
" transform="scale(0.015625)"/>
     <path id="DejaVuSans-Bold-49" d="M 588 4666 
L 1791 4666 
L 1791 0 
L 588 0 
L 588 4666 
z
" transform="scale(0.015625)"/>
     <path id="DejaVuSans-Bold-46" d="M 588 4666 
L 3834 4666 
L 3834 3756 
L 1791 3756 
L 1791 2888 
L 3713 2888 
L 3713 1978 
L 1791 1978 
L 1791 0 
L 588 0 
L 588 4666 
z
" transform="scale(0.015625)"/>
    </defs>
    <use xlink:href="#DejaVuSans-Bold-44"/>
    <use xlink:href="#DejaVuSans-Bold-49" x="83.007812"/>
    <use xlink:href="#DejaVuSans-Bold-46" x="120.214844"/>
    <use xlink:href="#DejaVuSans-Bold-46" x="188.525391"/>
   </g>
  </g>
 </g>
 <defs>
  <clipPath id="p903394c611">
   <path d="M 980.4132 356.6916 
C 980.4132 320.981659 973.37912 285.618953 959.713518 252.62727 
C 946.047915 219.635586 926.016551 189.656531 900.76581 164.40579 
C 875.515069 139.155049 845.536014 119.123685 812.54433 105.458082 
C 779.552647 91.79248 744.189941 84.7584 708.48 84.7584 
C 672.770059 84.7584 637.407353 91.79248 604.41567 105.458082 
C 571.423986 119.123685 541.444931 139.155049 516.19419 164.40579 
C 490.943449 189.656531 470.912085 219.635586 457.246482 252.62727 
C 443.58088 285.618953 436.5468 320.981659 436.5468 356.6916 
C 436.5468 392.401541 443.58088 427.764247 457.246482 460.75593 
C 470.912085 493.747614 490.943449 523.726669 516.19419 548.97741 
C 541.444931 574.228151 571.423986 594.259515 604.41567 607.925118 
C 637.407353 621.59072 672.770059 628.6248 708.48 628.6248 
C 744.189941 628.6248 779.552647 621.59072 812.54433 607.925118 
C 845.536014 594.259515 875.515069 574.228151 900.76581 548.97741 
C 926.016551 523.726669 946.047915 493.747614 959.713518 460.75593 
C 973.37912 427.764247 980.4132 392.401541 980.4132 356.6916 
M 708.48 356.6916 
C 708.48 356.6916 708.48 356.6916 708.48 356.6916 
C 708.48 356.6916 708.48 356.6916 708.48 356.6916 
C 708.48 356.6916 708.48 356.6916 708.48 356.6916 
C 708.48 356.6916 708.48 356.6916 708.48 356.6916 
C 708.48 356.6916 708.48 356.6916 708.48 356.6916 
C 708.48 356.6916 708.48 356.6916 708.48 356.6916 
C 708.48 356.6916 708.48 356.6916 708.48 356.6916 
C 708.48 356.6916 708.48 356.6916 708.48 356.6916 
C 708.48 356.6916 708.48 356.6916 708.48 356.6916 
C 708.48 356.6916 708.48 356.6916 708.48 356.6916 
C 708.48 356.6916 708.48 356.6916 708.48 356.6916 
C 708.48 356.6916 708.48 356.6916 708.48 356.6916 
C 708.48 356.6916 708.48 356.6916 708.48 356.6916 
C 708.48 356.6916 708.48 356.6916 708.48 356.6916 
C 708.48 356.6916 708.48 356.6916 708.48 356.6916 
C 708.48 356.6916 708.48 356.6916 708.48 356.6916 
M 980.4132 356.6916 
z
"/>
  </clipPath>
 </defs>
</svg>
